<?xml version="1.0" encoding="UTF-8"?>
<svg id="Layer_1" data-name="Layer 1" xmlns="http://www.w3.org/2000/svg" viewBox="0 0 200.7 73.88">
  <defs>
    <style>
      .cls-1 {
        font-family: NotoSansKR-Regular, 'Noto Sans KR';
        font-size: 12px;
        font-variation-settings: 'wght' 400;
      }

      .cls-2 {
        fill: #4e3bb5;
      }

      .cls-2, .cls-3 {
        stroke-width: 0px;
      }

      .cls-3 {
        fill: #ef9e3e;
      }
    </style>
  </defs>
  <g>
    <g>
      <path class="cls-2" d="M23.45,61.76c0,6.2-4.76,9.97-11.72,9.97S0,67.95,0,61.76v-19.31c0-6.2,4.76-9.97,11.72-9.97s11.72,3.77,11.72,9.97v19.31ZM15.99,43.75c0-3.46-1.53-5.26-4.27-5.26s-4.27,1.8-4.27,5.26v16.71c0,3.46,1.53,5.26,4.27,5.26s4.27-1.8,4.27-5.26v-16.71ZM27.13,73.75v-40.96h7.45v40.96h-7.45Z"/>
      <path class="cls-2" d="M39.33,56.73v-5.84h15.14v-2.6h-12.76v-12.4c0-2.11.9-3.01,3.01-3.01h30.18v5.75h-25.74v3.91h26.01v5.75h-12.8v2.6h15.14v5.84h-38.18ZM49.67,73.88c-5.26,0-8.98-2.83-8.98-7.64s3.73-7.64,8.98-7.64h17.51c5.26,0,8.98,2.83,8.98,7.64s-3.73,7.64-8.98,7.64h-17.51ZM50.88,64.45c-1.89,0-2.74.67-2.74,1.8s.85,1.8,2.74,1.8h15.09c1.89,0,2.74-.67,2.74-1.8s-.85-1.8-2.74-1.8h-15.09Z"/>
      <path class="cls-2" d="M81.09,70.24v-6.02h25.78v6.02h-25.78ZM104.9,49.76c0,6.2-4.67,9.97-11.5,9.97s-11.5-3.77-11.5-9.97v-7.32c0-6.2,4.67-9.97,11.5-9.97s11.5,3.77,11.5,9.97v7.32ZM97.44,43.57c0-3.46-1.44-5.25-4.04-5.25s-4.04,1.79-4.04,5.25v5.07c0,3.46,1.44,5.26,4.04,5.26s4.04-1.8,4.04-5.26v-5.07ZM108.49,73.75v-40.96h7.46v40.96h-7.46Z"/>
      <path class="cls-2" d="M134.53,73.88v-12.71c0-2.69.67-3.37,3.37-3.37h9.61v-2.78h-15.14v-5.84h38.18v5.84h-15.14v2.78h12.98v11.72c0,3.14-1.21,4.36-4.36,4.36h-29.51ZM160.35,48.06l.85-8.17c.09-.9-.36-1.26-1.26-1.26h-9.03l-1.39,9.43h-7.46l1.3-8.17c.13-.9-.36-1.26-1.26-1.26h-7.81v-5.75h32.47c1.57,0,2.43.99,2.29,2.47l-1.26,12.71h-7.45ZM160.94,63.64h-18.95v4.4h18.95v-4.4Z"/>
    </g>
    <path class="cls-3" d="M180.01,14.9c0-7,4.83-12.85,11.33-14.45-1.25-.28-2.54-.45-3.88-.45-9.6,0-17.39,7.78-17.39,17.39s7.78,17.39,17.39,17.39c5.31,0,10.05-2.39,13.24-6.13-1.78.75-3.74,1.17-5.79,1.17-8.23,0-14.9-6.67-14.9-14.9Z"/>
  </g>
  <text class="cls-1" transform="translate(0 18.26)"><tspan x="0" y="0">꿈꾸던 이동을 실현시키다</tspan></text>
</svg>